<svg width="21" height="20" viewBox="0 0 21 20" fill="none" xmlns="http://www.w3.org/2000/svg">
<path d="M18.97 0.000139831H2.03C1.83958 -0.00250479 1.6505 0.0323873 1.47356 0.102824C1.29663 0.17326 1.1353 0.27786 0.998795 0.410652C0.862289 0.543443 0.753279 0.701824 0.677989 0.876749C0.6027 1.05167 0.562606 1.23972 0.559998 1.43014V18.5701C0.562606 18.7606 0.6027 18.9486 0.677989 19.1235C0.753279 19.2985 0.862289 19.4568 0.998795 19.5896C1.1353 19.7224 1.29663 19.827 1.47356 19.8975C1.6505 19.9679 1.83958 20.0028 2.03 20.0001H18.97C19.1604 20.0028 19.3495 19.9679 19.5264 19.8975C19.7034 19.827 19.8647 19.7224 20.0012 19.5896C20.1377 19.4568 20.2467 19.2985 20.322 19.1235C20.3973 18.9486 20.4374 18.7606 20.44 18.5701V1.43014C20.4374 1.23972 20.3973 1.05167 20.322 0.876749C20.2467 0.701824 20.1377 0.543443 20.0012 0.410652C19.8647 0.27786 19.7034 0.17326 19.5264 0.102824C19.3495 0.0323873 19.1604 -0.00250479 18.97 0.000139831ZM6.59 16.7401H3.59V7.74014H6.59V16.7401ZM5.09 6.48014C4.67626 6.48014 4.27947 6.31578 3.98691 6.02323C3.69435 5.73067 3.53 5.33388 3.53 4.92014C3.53 4.5064 3.69435 4.10961 3.98691 3.81705C4.27947 3.5245 4.67626 3.36014 5.09 3.36014C5.30969 3.33522 5.53217 3.35699 5.74287 3.42402C5.95357 3.49105 6.14774 3.60183 6.31265 3.7491C6.47757 3.89637 6.60952 4.07682 6.69987 4.27862C6.79021 4.48043 6.83692 4.69904 6.83692 4.92014C6.83692 5.14124 6.79021 5.35985 6.69987 5.56166C6.60952 5.76346 6.47757 5.94391 6.31265 6.09118C6.14774 6.23845 5.95357 6.34923 5.74287 6.41626C5.53217 6.48329 5.30969 6.50505 5.09 6.48014ZM17.41 16.7401H14.41V11.9101C14.41 10.7001 13.98 9.91014 12.89 9.91014C12.5527 9.91261 12.2242 10.0184 11.9488 10.2133C11.6735 10.4082 11.4645 10.6828 11.35 11.0001C11.2717 11.2352 11.2378 11.4827 11.25 11.7301V16.7301H8.25C8.25 16.7301 8.25 8.55014 8.25 7.73014H11.25V9.00014C11.5225 8.52725 11.9189 8.13766 12.3964 7.87334C12.874 7.60902 13.4146 7.47999 13.96 7.50014C15.96 7.50014 17.41 8.79014 17.41 11.5601V16.7401Z" fill="#196FC5"/>
</svg>
